<svg width="120" height="13" viewBox="0 0 120 13" fill="none" xmlns="http://www.w3.org/2000/svg">
<g id="logo">
<g id="XMLID_234_">
<path id="XMLID_243_" d="M9.03846 0.653848V7.28846C9.03846 9.5 8.07692 10.4135 5.76923 10.4135C3.46154 10.4135 2.5 9.5 2.5 7.28846V0.365387H0.288462C0.144231 0.365387 0 0.509618 0 0.653848V7.38462C0 11.0865 2.35577 12.3846 5.76923 12.3846C9.18269 12.3846 11.5385 11.0865 11.5385 7.38462V0.365387H9.32692C9.18269 0.365387 9.03846 0.461541 9.03846 0.653848Z" fill="black"/>
<path id="XMLID_242_" d="M41.2019 2.28846C41.3942 2.28846 41.4904 2.24039 41.5385 2.09616L42.1635 0.509618C42.2115 0.413464 42.1635 0.365387 42.0673 0.365387H33.125C32.3077 0.365387 31.9712 0.605772 31.9712 1.18269V11.4712C31.9712 11.9519 32.2115 12.1923 32.8365 12.1923H41.1539C41.3462 12.1923 41.4423 12.1442 41.4904 12L42.1154 10.4135C42.1635 10.3173 42.1154 10.2692 42.0192 10.2692H34.4231V8.15385C34.4231 7.43269 34.8077 7.09616 35.9135 7.09616H39.2308C39.4231 7.09616 39.5192 7.04808 39.5673 6.90385L40.1923 5.36539C40.2404 5.26923 40.1923 5.22116 40.0962 5.22116H34.4712V2.24039H41.2019V2.28846Z" fill="black"/>
<path id="XMLID_238_" fill-rule="evenodd" clip-rule="evenodd" d="M25.4807 5.94232C26.4423 5.41345 26.8269 4.5 26.8269 3.34616C26.8269 0.75 24.7115 0.365387 22.5 0.365387H17.4519C16.6346 0.365387 16.2981 0.605774 16.2981 1.18271V11.4712C16.2981 11.9519 16.5385 12.1923 17.1635 12.1923H23.3654C25.7211 12.1923 27.3557 11.2788 27.3557 8.92307C27.4038 7.48077 26.8269 6.27884 25.4807 5.94232ZM18.7981 2.24039H22.6923C23.9904 2.24039 24.375 2.72116 24.375 3.73077C24.375 4.74039 23.9904 5.22116 22.6923 5.22116H18.7981V2.24039ZM18.7981 10.2692H23.1731C24.5673 10.2692 24.9519 9.78845 24.9519 8.68268C24.9519 7.5769 24.5673 7.04807 23.1731 7.04807H20.2885C19.1827 7.04807 18.7981 7.38461 18.7981 8.10574V10.2692Z" fill="black"/>
<path id="XMLID_235_" fill-rule="evenodd" clip-rule="evenodd" d="M55 7.43271L57.6442 12C57.6923 12.0481 57.6923 12.1923 57.5962 12.1923H55.3365C55.1442 12.1923 55.0962 12.1442 55 12L52.5962 7.67307H50.4327C49.3269 7.67307 48.9423 8.00961 48.9423 8.73077V12.1923H46.7788C46.6346 12.1923 46.4904 12.0481 46.4904 11.9038V1.18271C46.4904 0.605774 46.8269 0.365387 47.6442 0.365387H52.6923C55.625 0.365387 57.4038 1.13461 57.4038 4.01923C57.4038 6.23077 56.2981 7.09616 55 7.43271ZM48.8942 5.84616H53.0288C54.5673 5.84616 54.9038 5.26923 54.9038 4.01923C54.9038 2.81732 54.5673 2.24039 53.0288 2.24039H48.8942V5.84616Z" fill="black"/>
</g>
<g id="XMLID_224_">
<path id="XMLID_232_" d="M76.0577 11.1346L76.0096 12.1923H67.2596V0.365387H75.6731L75.7212 1.47116H68.4615V5.55769H74.7115V6.51923H68.4615V11.1346H76.0577Z" fill="#57AD56" stroke="#57AD56" stroke-width="0.25"/>
<g id="XMLID_229_">
<path fill-rule="evenodd" clip-rule="evenodd" d="M83.3173 9.11539H90.2885L91.6346 12.1923H92.9807L87.5481 0.365387H86.1538L80.6731 12.1923H81.9711L83.3173 9.11539ZM83.75 8.10577L86.2981 2.38464L86.7788 1.18271H86.8269L87.3077 2.38464L89.8077 8.10577H83.75Z" fill="#57AD56"/>
<path d="M90.2885 9.11539L90.403 9.06528L90.3702 8.99039H90.2885V9.11539ZM83.3173 9.11539V8.99039H83.2355L83.2028 9.06528L83.3173 9.11539ZM91.6346 12.1923L91.5201 12.2424L91.5529 12.3173H91.6346V12.1923ZM92.9807 12.1923V12.3173H93.1757L93.0943 12.1401L92.9807 12.1923ZM87.5481 0.365387L87.6617 0.31321L87.6282 0.240387H87.5481V0.365387ZM86.1538 0.365387V0.240387H86.074L86.0404 0.312829L86.1538 0.365387ZM80.6731 12.1923L80.5597 12.1398L80.4774 12.3173H80.6731V12.1923ZM81.9711 12.1923V12.3173H82.0529L82.0856 12.2424L81.9711 12.1923ZM86.2981 2.38464L86.4123 2.43554L86.4141 2.43107L86.2981 2.38464ZM83.75 8.10577L83.6358 8.05492L83.5575 8.23077H83.75V8.10577ZM86.7788 1.18271V1.05771H86.6942L86.6628 1.13628L86.7788 1.18271ZM86.8269 1.18271L86.943 1.13629L86.9116 1.05771H86.8269V1.18271ZM87.3077 2.38464L87.1916 2.43109L87.1931 2.4347L87.3077 2.38464ZM89.8077 8.10577V8.23077H89.9987L89.9222 8.05572L89.8077 8.10577ZM90.2885 8.99039H83.3173V9.24039H90.2885V8.99039ZM91.7491 12.1422L90.403 9.06528L90.1739 9.16549L91.5201 12.2424L91.7491 12.1422ZM92.9807 12.0673H91.6346V12.3173H92.9807V12.0673ZM87.4345 0.417564L92.8672 12.2445L93.0943 12.1401L87.6617 0.31321L87.4345 0.417564ZM86.1538 0.490387H87.5481V0.240387H86.1538V0.490387ZM80.7865 12.2449L86.2673 0.417945L86.0404 0.312829L80.5597 12.1398L80.7865 12.2449ZM81.9711 12.0673H80.6731V12.3173H81.9711V12.0673ZM83.2028 9.06528L81.8566 12.1422L82.0856 12.2424L83.4318 9.16549L83.2028 9.06528ZM86.1839 2.33379L83.6358 8.05492L83.8642 8.15663L86.4123 2.4355L86.1839 2.33379ZM86.6628 1.13628L86.182 2.33822L86.4141 2.43107L86.8949 1.22913L86.6628 1.13628ZM86.8269 1.05771H86.7788V1.30771H86.8269V1.05771ZM87.4237 2.33822L86.943 1.13629L86.7109 1.22913L87.1916 2.43106L87.4237 2.33822ZM89.9222 8.05572L87.4222 2.33459L87.1931 2.4347L89.6931 8.15583L89.9222 8.05572ZM83.75 8.23077H89.8077V7.98077H83.75V8.23077Z" fill="#57AD56"/>
</g>
<path id="XMLID_227_" d="M101.635 1.47116V12.1923H100.433V1.47116H96.0096L96.0577 0.365387H106.106V1.47116H101.635Z" fill="#57AD56" stroke="#57AD56" stroke-width="0.25"/>
<path id="XMLID_225_" d="M114.663 12.4327C113.029 12.4327 111.731 12.0481 110.673 11.4231L110.865 10.3654C111.971 10.9904 113.221 11.375 114.712 11.375C116.923 11.375 118.077 10.3654 118.077 8.92308C118.077 5.79808 110.865 7.43269 110.865 3.39423C110.865 1.66346 112.163 0.125 115.192 0.125C116.587 0.125 117.837 0.365385 118.846 0.846154L118.654 1.85577C117.548 1.42308 116.49 1.18269 115.24 1.18269C112.885 1.18269 112.019 2.24038 112.019 3.29808C112.019 6.27885 119.231 4.59615 119.231 8.82692C119.183 10.9423 117.644 12.4327 114.663 12.4327Z" fill="#57AD56" stroke="#57AD56" stroke-width="0.25"/>
</g>
</g>
</svg>
