<svg width="191" height="20" viewBox="0 0 191 20" fill="none" xmlns="http://www.w3.org/2000/svg">
<g id="white-logo">
<g id="XMLID_234_">
<path id="XMLID_243_" d="M14.4615 0.971182V11.5866C14.4615 15.125 12.9231 16.5866 9.23077 16.5866C5.53846 16.5866 4 15.125 4 11.5866V0.509644H0.461538C0.230769 0.509644 0 0.740413 0 0.971182V11.7404C0 17.6635 3.76923 19.7404 9.23077 19.7404C14.6923 19.7404 18.4615 17.6635 18.4615 11.7404V0.509644H14.9231C14.6923 0.509644 14.4615 0.66349 14.4615 0.971182Z" fill="white"/>
<path id="XMLID_242_" d="M65.9231 3.58657C66.2308 3.58657 66.3846 3.50964 66.4615 3.27887L67.4615 0.740413C67.5385 0.586567 67.4615 0.509644 67.3077 0.509644H53C51.6923 0.509644 51.1538 0.894259 51.1538 1.81734V18.2789C51.1538 19.0481 51.5385 19.4327 52.5385 19.4327H65.8461C66.1538 19.4327 66.3077 19.3558 66.3846 19.125L67.3846 16.5866C67.4615 16.4327 67.3846 16.3558 67.2308 16.3558H55.0769V12.9712C55.0769 11.8173 55.6923 11.2789 57.4615 11.2789H62.7692C63.0769 11.2789 63.2308 11.202 63.3077 10.9712L64.3077 8.50964C64.3846 8.3558 64.3077 8.27887 64.1538 8.27887H55.1538V3.50964H65.9231V3.58657Z" fill="white"/>
<path id="XMLID_238_" fill-rule="evenodd" clip-rule="evenodd" d="M40.7693 9.43274C42.3077 8.58655 42.9231 7.125 42.9231 5.27893C42.9231 1.125 39.5385 0.509644 36 0.509644H27.9231C26.6154 0.509644 26.0769 0.894287 26.0769 1.81738V18.2789C26.0769 19.0481 26.4615 19.4327 27.4615 19.4327H37.3846C41.1539 19.4327 43.7693 17.9712 43.7693 14.2019C43.8462 11.8943 42.9231 9.97119 40.7693 9.43274ZM30.0769 3.50964H36.3077C38.3846 3.50964 39 4.27893 39 5.89429C39 7.50964 38.3846 8.27893 36.3077 8.27893H30.0769V3.50964ZM30.0769 16.3557H37.0769C39.3077 16.3557 39.9231 15.5865 39.9231 13.8173C39.9231 12.0481 39.3077 11.2019 37.0769 11.2019H32.4615C30.6923 11.2019 30.0769 11.7404 30.0769 12.8942V16.3557Z" fill="white"/>
<path id="XMLID_235_" fill-rule="evenodd" clip-rule="evenodd" d="M88 11.8174L92.2308 19.125C92.3077 19.2019 92.3077 19.4327 92.1538 19.4327H88.5385C88.2308 19.4327 88.1538 19.3558 88 19.125L84.1538 12.2019H80.6923C78.9231 12.2019 78.3077 12.7404 78.3077 13.8943V19.4327H74.8462C74.6154 19.4327 74.3846 19.2019 74.3846 18.9712V1.81738C74.3846 0.894287 74.9231 0.509644 76.2308 0.509644H84.3077C89 0.509644 91.8462 1.74036 91.8462 6.35583C91.8462 9.89429 90.0769 11.2789 88 11.8174ZM78.2308 9.27893H84.8462C87.3077 9.27893 87.8462 8.35583 87.8462 6.35583C87.8462 4.43274 87.3077 3.50964 84.8462 3.50964H78.2308V9.27893Z" fill="white"/>
</g>
<g id="XMLID_224_">
<path id="XMLID_232_" d="M121.692 17.7404L121.615 19.4327H107.615V0.509644H121.077L121.154 2.27887H109.538V8.81734H119.538V10.3558H109.538V17.7404H121.692Z" fill="#57AD56" stroke="#57AD56" stroke-width="0.25"/>
<g id="XMLID_229_">
<path fill-rule="evenodd" clip-rule="evenodd" d="M133.308 14.5096H144.462L146.615 19.4327H148.769L140.077 0.509644H137.846L129.077 19.4327H131.154L133.308 14.5096ZM134 12.8943L138.077 3.74048L138.846 1.81738H138.923L139.692 3.74048L143.692 12.8943H134Z" fill="#57AD56"/>
<path d="M144.462 14.5096L144.576 14.4595L144.543 14.3846H144.462V14.5096ZM133.308 14.5096V14.3846H133.226L133.193 14.4595L133.308 14.5096ZM146.615 19.4327L146.501 19.4828L146.534 19.5577H146.615V19.4327ZM148.769 19.4327V19.5577H148.964L148.883 19.3806L148.769 19.4327ZM140.077 0.509644L140.191 0.457466L140.157 0.384644H140.077V0.509644ZM137.846 0.509644V0.384644H137.766L137.733 0.457086L137.846 0.509644ZM129.077 19.4327L128.964 19.3802L128.881 19.5577H129.077V19.4327ZM131.154 19.4327V19.5577H131.236L131.268 19.4828L131.154 19.4327ZM138.077 3.74048L138.191 3.79137L138.193 3.7869L138.077 3.74048ZM134 12.8943L133.886 12.8434L133.807 13.0193H134V12.8943ZM138.846 1.81738V1.69238H138.762L138.73 1.77096L138.846 1.81738ZM138.923 1.81738L139.039 1.77096L139.008 1.69238H138.923V1.81738ZM139.692 3.74048L139.576 3.78693L139.578 3.79053L139.692 3.74048ZM143.692 12.8943V13.0193H143.883L143.807 12.8442L143.692 12.8943ZM144.462 14.3846H133.308V14.6346H144.462V14.3846ZM146.73 19.3826L144.576 14.4595L144.347 14.5597L146.501 19.4828L146.73 19.3826ZM148.769 19.3077H146.615V19.5577H148.769V19.3077ZM139.963 0.561821L148.656 19.4849L148.883 19.3806L140.191 0.457466L139.963 0.561821ZM137.846 0.634644H140.077V0.384644H137.846V0.634644ZM129.19 19.4853L137.96 0.562201L137.733 0.457086L128.964 19.3802L129.19 19.4853ZM131.154 19.3077H129.077V19.5577H131.154V19.3077ZM133.193 14.4595L131.039 19.3826L131.268 19.4828L133.422 14.5597L133.193 14.4595ZM137.963 3.68962L133.886 12.8434L134.114 12.9451L138.191 3.79134L137.963 3.68962ZM138.73 1.77096L137.961 3.69406L138.193 3.7869L138.962 1.86381L138.73 1.77096ZM138.923 1.69238H138.846V1.94238H138.923V1.69238ZM139.808 3.69405L139.039 1.77096L138.807 1.86381L139.576 3.7869L139.808 3.69405ZM143.807 12.8442L139.807 3.69043L139.578 3.79053L143.578 12.9443L143.807 12.8442ZM134 13.0193H143.692V12.7693H134V13.0193Z" fill="#57AD56"/>
</g>
<path id="XMLID_227_" d="M162.615 2.27887V19.4327H160.692V2.27887H153.615L153.692 0.509644H169.769V2.27887H162.615Z" fill="#57AD56" stroke="#57AD56" stroke-width="0.25"/>
<path id="XMLID_225_" d="M183.462 19.8173C180.846 19.8173 178.769 19.2019 177.077 18.2019L177.385 16.5096C179.154 17.5096 181.154 18.125 183.538 18.125C187.077 18.125 188.923 16.5096 188.923 14.2019C188.923 9.20192 177.385 11.8173 177.385 5.35577C177.385 2.58654 179.462 0.125 184.308 0.125C186.538 0.125 188.538 0.509615 190.154 1.27885L189.846 2.89423C188.077 2.20192 186.385 1.81731 184.385 1.81731C180.615 1.81731 179.231 3.50962 179.231 5.20192C179.231 9.97115 190.769 7.27885 190.769 14.0481C190.692 17.4327 188.231 19.8173 183.462 19.8173Z" fill="#57AD56" stroke="#57AD56" stroke-width="0.25"/>
</g>
</g>
</svg>
